<?xml version="1.0" standalone="no"?>
<!DOCTYPE svg PUBLIC "-//W3C//DTD SVG 20010904//EN"
 "http://www.w3.org/TR/2001/REC-SVG-20010904/DTD/svg10.dtd">
<svg version="1.0" xmlns="http://www.w3.org/2000/svg"
 width="1000.000000pt" height="1000.000000pt" viewBox="0 0 1000.000000 1000.000000"
 preserveAspectRatio="xMidYMid meet">
<metadata>
Created by potrace 1.11, written by Peter Selinger 2001-2013
</metadata>
<g transform="translate(0.000000,1000.000000) scale(0.100000,-0.100000)"
fill="#000000" stroke="none">
<path d="M4709 9786 c-2 -2 -47 -7 -99 -10 -52 -4 -106 -8 -120 -11 -14 -2
-56 -7 -93 -10 -37 -4 -78 -8 -90 -11 -12 -2 -39 -6 -62 -9 -67 -10 -157 -25
-205 -35 -25 -5 -56 -12 -70 -14 -182 -31 -661 -175 -833 -249 -17 -8 -77 -34
-132 -57 -114 -48 -365 -172 -440 -217 -27 -16 -57 -32 -65 -36 -8 -5 -24 -13
-35 -20 -11 -7 -42 -26 -70 -42 -170 -100 -428 -288 -633 -460 -203 -170 -463
-442 -651 -677 -105 -133 -116 -149 -245 -343 -290 -438 -507 -927 -631 -1425
-55 -223 -90 -408 -111 -589 -3 -30 -7 -61 -9 -70 -26 -138 -27 -795 0 -986 2
-16 9 -70 15 -120 17 -136 20 -156 30 -205 5 -25 12 -58 15 -75 2 -16 10 -55
16 -85 6 -30 15 -74 20 -98 5 -24 11 -47 13 -51 3 -4 7 -19 10 -33 2 -14 14
-61 26 -104 165 -597 489 -1229 871 -1699 161 -197 394 -442 558 -585 40 -36
79 -70 85 -75 24 -23 166 -135 241 -191 345 -260 763 -492 1161 -644 60 -23
118 -45 129 -50 11 -5 85 -30 165 -55 247 -78 515 -141 775 -180 22 -3 56 -8
75 -11 19 -2 49 -6 65 -9 17 -3 59 -7 95 -10 36 -3 85 -9 110 -12 25 -3 1078
-8 2340 -10 1706 -3 2314 -1 2370 7 264 41 483 236 566 505 18 58 19 146 19
2300 0 1955 -3 2379 -20 2479 -2 11 -6 41 -9 66 -29 259 -126 699 -196 890 -5
14 -25 72 -45 130 -21 58 -43 119 -50 135 -8 17 -32 73 -53 125 -117 282 -307
621 -494 883 -83 116 -252 330 -317 402 -118 128 -285 297 -372 376 -258 232
-516 422 -822 602 -70 42 -127 74 -127 71 0 -3 -12 4 -28 14 -63 45 -410 205
-592 272 -181 68 -448 150 -570 176 -13 3 -60 14 -105 24 -79 18 -267 54 -335
64 -124 18 -147 20 -260 31 -41 4 -91 9 -110 12 -40 6 -666 14 -671 9z m306
-1356 c122 -14 135 -16 250 -51 128 -39 246 -94 354 -166 47 -31 88 -59 91
-63 3 -3 17 -15 32 -27 27 -20 28 -20 94 -2 118 33 235 47 389 47 306 0 607
-102 855 -291 90 -68 228 -210 289 -297 43 -62 64 -81 133 -122 45 -26 106
-67 137 -91 91 -69 263 -247 295 -306 5 -9 23 -38 41 -66 85 -131 155 -317
184 -490 25 -153 22 -390 -8 -534 -41 -196 -150 -422 -267 -556 -14 -16 -36
-41 -48 -55 -95 -109 -274 -240 -424 -311 -78 -37 -234 -92 -292 -103 -14 -3
-47 -9 -75 -15 -27 -5 -84 -12 -125 -16 -74 -6 -100 -19 -100 -51 0 -24 -89
-201 -141 -281 -227 -346 -581 -564 -1019 -627 -43 -7 -287 -8 -315 -2 -11 2
-42 7 -70 10 -27 4 -67 11 -88 17 -35 9 -44 7 -95 -23 -200 -119 -408 -185
-625 -200 -22 -2 -35 -15 -69 -68 -23 -36 -44 -67 -47 -70 -4 -3 -19 -22 -35
-44 -116 -155 -310 -308 -512 -402 -82 -39 -229 -89 -289 -100 -11 -1 -32 -5
-46 -8 -110 -23 -345 -29 -464 -11 -216 31 -448 125 -629 254 -286 203 -497
533 -551 861 -3 19 -8 47 -11 61 -2 14 -7 75 -9 137 l-4 111 -57 67 c-148 175
-249 384 -301 622 -18 82 -24 344 -11 437 11 77 46 213 72 285 18 47 26 96 31
175 20 351 154 654 400 900 50 50 122 114 162 144 59 44 86 73 147 165 141
210 331 384 540 494 34 18 66 43 77 62 42 69 165 194 229 235 25 15 47 31 50
34 3 3 23 15 45 26 22 11 42 23 45 26 23 29 233 118 315 134 24 5 37 8 91 23
52 15 35 14 374 18 l285 3 100 35 c121 42 231 65 345 73 47 3 86 6 87 7 3 3
101 -5 188 -14z"/>
</g>
</svg>
