<?xml version="1.0" encoding="utf-8"?>
<!-- Generator: Adobe Illustrator 22.1.0, SVG Export Plug-In . SVG Version: 6.00 Build 0)  -->
<svg version="1.1" id="Camada_1" xmlns="http://www.w3.org/2000/svg" xmlns:xlink="http://www.w3.org/1999/xlink" x="0px" y="0px"
	 width="1231.7px" height="1239.4px" viewBox="0 0 1231.7 1239.4" style="enable-background:new 0 0 1231.7 1239.4;"
	 xml:space="preserve" fill="#fff">
<path d="M14.5,0.9C2,4.7-3.5,18,2.9,29.1c1.5,2.5,3.8,5.2,5.1,6.1c10.1,6.6,23.5,2.5,28.1-8.5c4.4-10.4-1.6-22.8-12.2-25.8
	C19.7-0.2,18.3-0.2,14.5,0.9z"/>
<path d="M137.5,0.9c-8.9,2.8-13.9,9.5-13.9,18.5c0,17,20.6,25.6,31.7,13.3c4.2-4.5,5.6-8.7,5.2-14.9c-0.5-6.4-3.8-11.8-9.4-15.1
	C147.5,0.6,141.1-0.3,137.5,0.9z"/>
<path d="M259.3,1.4c-7.8,2.8-12.6,9.6-12.6,18c0,6,1.9,10.3,6.3,14.2c6,5.3,13.7,6.3,20.7,2.7c3.4-1.7,7.7-6.3,8.9-9.7
	c1.5-3.9,1.4-11.1-0.3-15C280.6,7.3,274.7,2.3,270,1C265.2-0.4,264.1-0.3,259.3,1.4z"/>
<path d="M382.4,1.3c-13.9,5.1-17.1,23.4-5.7,32.9c11.9,10.1,30.3,1.1,30.3-14.8C407,6.5,394-3,382.4,1.3z"/>
<path d="M505.4,1.4c-10.8,3.8-15.7,16.2-10.4,26.5c8.5,17,32.2,12.4,35.3-6.8c0.5-3.1,0.1-5.3-1.9-9.5c-2.7-5.9-6.1-8.9-12.2-10.6
	C511.2-0.4,510.1-0.3,505.4,1.4z"/>
<path d="M628.7,1.2c-4.6,1.5-10.6,7.7-12.1,12.5c-1.6,5.5-0.4,12.2,3,16.9c7.6,10.5,23,10.1,30.6-0.6c4-5.7,4.3-14.5,0.6-20.4
	C646.2,2.1,636.7-1.5,628.7,1.2z"/>
<path d="M752.5,1.3c-5.9,2.1-8.6,4.3-10.8,8.5c-3.5,6.9-3.6,11.3-0.6,17.6c1.5,3,3.9,6.3,5.4,7.4c16.1,11.4,36.9-6.3,28-23.9
	C770.3,2.6,760.4-1.7,752.5,1.3z"/>
<path d="M876.5,0.9c-12.4,3.7-17.9,17.3-11.5,28.2c6.1,10.5,21.3,12.4,29.3,3.6c9.8-10.7,5.3-28-8.4-31.8
	C881.7-0.2,880.3-0.2,876.5,0.9z"/>
<path d="M998.3,1.4c-7.8,2.8-12.6,9.6-12.6,18c0,6,1.9,10.3,6.3,14.2c6,5.3,13.7,6.3,20.7,2.7c3.4-1.7,7.7-6.3,8.9-9.7
	c1.5-3.9,1.4-11.1-0.3-15c-1.7-4.3-7.6-9.3-12.3-10.6C1004.2-0.4,1003.1-0.3,998.3,1.4z"/>
<path d="M1121.4,1.3c-13.9,5.1-17.1,23.4-5.7,32.9c5.9,5,13.6,5.6,21.1,1.5c11.9-6.5,12.1-25.5,0.4-32.3
	C1132,0.3,1126.2-0.5,1121.4,1.3z"/>
<path d="M71.8,64.7c-12.2,6.2-13.6,23.4-2.5,31.8c3.7,2.9,11.7,4.3,16.8,3c3.2-0.8,9.3-6.1,11.2-9.7c1.7-3.3,1.9-11.6,0.3-15.6
	c-1.3-3.4-5.5-8-9.1-9.9C84.7,62.3,75.9,62.5,71.8,64.7z"/>
<path d="M195.2,64.6c-4.6,2.4-6.6,4.5-8.6,8.8c-5.5,11.9,2,25.2,14.6,26.3c7.1,0.6,9.7-0.2,14-4c6.1-5.3,8.4-11.9,6.5-18.7
	c-1.2-4.6-5.9-10.5-10.1-12.7C207.9,62.4,199,62.6,195.2,64.6z"/>
<path d="M317.4,65c-9.1,4.8-12.3,17.9-6.4,26.7c5.1,7.8,16.1,10.6,24.7,6.2c9.3-4.7,12.6-17.5,6.9-26.7
	C337.8,63.5,325.8,60.5,317.4,65z"/>
<path d="M442.2,64.3c-6.9,3-12.4,13-11,19.9c1.2,5.5,5.1,11.1,9.5,13.6c5.9,3.3,15.2,2.7,20.5-1.3c8.5-6.5,9.8-20,2.7-27.9
	C459.2,63.4,448.9,61.4,442.2,64.3z"/>
<path d="M565.7,64c-3.2,1.3-7.8,5.7-9.6,9.1c-1.7,3.2-1.8,11.5-0.3,15.5c2.6,6.8,9.5,11.3,17.6,11.3c17.8,0,25-22.7,10.7-33.7
	c-2.9-2.2-4.9-2.8-9.8-3C571,63,567.1,63.4,565.7,64z"/>
<path d="M687.7,64.8c-5.9,3.2-9.3,8.3-9.8,14.9c-0.8,11.8,6.8,20.2,18.3,20.2c7.5,0,13.7-3.7,17.1-10.2c1.7-3.2,1.8-11.5,0.3-15.5
	c-1.4-3.8-5.7-8.3-9.6-9.9C699.4,62.3,691.8,62.6,687.7,64.8z"/>
<path d="M811.2,64.5c-4.5,2.3-6.6,4.5-8.6,8.9c-3.7,8-1.3,17.8,5.6,23.1c5.3,4,14.6,4.6,20.5,1.3c4.4-2.5,8.3-8.1,9.5-13.6
	c1.4-6.7-3.7-16.3-10.6-19.9C823.9,62.4,815,62.5,811.2,64.5z"/>
<path d="M932.6,65.8c-5.8,3.6-8.4,8.7-8.4,16.2c0.1,18,24.2,24.9,34.2,9.7c3.8-5.6,3.9-14.5,0.5-20.1
	C953.4,62.9,941.4,60.2,932.6,65.8z"/>
<path d="M1058.2,64.3c-4.3,1.8-9.2,7.8-10.5,12.7c-1.9,6.8,0.4,13.4,6.5,18.7c4.3,3.8,6.9,4.6,14,4c12.3-1,19.8-13.9,15-25.5
	c-2-4.8-4.1-7.1-8.7-9.4C1070.2,62.6,1062.6,62.4,1058.2,64.3z"/>
<path d="M1181.2,64.3c-3.8,1.7-8,6.2-9.4,9.9c-1.4,3.7-1.4,12.3,0,15c1.7,3.2,6,7.7,9.1,9.3c3.8,2,12.6,1.8,16.7-0.4
	c12.3-6.2,13.6-23.4,2.5-31.9c-2.9-2.2-4.9-2.8-9.8-3C1186.6,63,1183,63.4,1181.2,64.3z"/>
<path d="M14.5,124.9c-12.1,3.7-17.7,16.7-12,27.7c2.6,5,6.3,7.8,12.4,9.3c15.2,3.8,27.8-12.7,20.6-27
	C31.6,127.3,21.8,122.6,14.5,124.9z"/>
<path d="M137.5,124.9c-8.8,2.6-13.9,9.5-13.9,18.6c0,15.9,18.1,24.8,30.1,14.7c11.7-9.8,8-28.5-6.4-32.8
	C141.8,123.7,141.4,123.7,137.5,124.9z"/>
<path d="M259.3,125.4c-7.8,2.8-12.6,9.6-12.6,18c0,6,1.9,10.3,6.3,14.2c3.2,2.8,9,5.3,12.2,5.3c6,0,14.8-6,17.1-11.7
	c1.8-4.1,1.8-11.5,0-15.6c-1.7-4.3-7.6-9.3-12.3-10.6C265.2,123.6,264.1,123.7,259.3,125.4z"/>
<path d="M386.2,124.4c-0.5,0.2-2.2,0.6-3.7,0.9c-3.7,0.8-8.5,5.1-11,9.9c-1.5,3.1-1.9,5.4-1.6,9.9c1,13.9,15.8,21.7,27.9,14.6
	c12.2-7.1,12.2-25.8,0-32.6C394.2,125.1,388.1,123.7,386.2,124.4z"/>
<path d="M506.7,125c-14.6,4.3-18.7,23.4-7.1,33.2c12.1,10.2,30.5,1.2,30.5-14.8C530.1,131.2,518,121.7,506.7,125z"/>
<path d="M629.3,125.1c-2.1,0.6-5.6,2.8-7.7,4.9c-12,12-3.7,32.4,13.2,32.4c10.8,0,18.4-8,18.4-19.2c0-5.2-0.4-6.8-3-10.4
	C645.4,126,637.2,123,629.3,125.1z"/>
<path d="M753.5,124.9c-14.4,4.4-19.1,21.7-8.8,32c11.8,11.8,31.9,3.3,32-13.5C776.7,131.8,764,121.6,753.5,124.9z"/>
<path d="M876.5,124.9c-8.8,2.7-13.9,9.5-14,18.5c-0.2,15.9,18.2,24.9,30.2,14.8c8.6-7.2,9.3-19.7,1.6-28.1
	C890.2,125.5,882,123.2,876.5,124.9z"/>
<path d="M998.3,125.4c-7.8,2.8-12.6,9.6-12.6,18c0,6,1.9,10.3,6.3,14.2c3.2,2.8,9,5.3,12.2,5.3c6,0,14.8-6,17.1-11.7
	c1.8-4.1,1.8-11.5,0-15.6c-1.7-4.3-7.6-9.3-12.3-10.6C1004.2,123.6,1003.1,123.7,998.3,125.4z"/>
<path d="M1125.2,124.4c-0.5,0.2-2.2,0.6-3.7,0.9c-3.7,0.8-8.5,5.1-11,9.9c-1.5,3.1-1.9,5.4-1.6,9.9c1,13.9,15.8,21.7,27.9,14.6
	c12-7.1,12.2-25.8,0.2-32.5C1133.3,125.1,1127.2,123.6,1125.2,124.4z"/>
<path d="M73.2,187.8c-7.6,3.5-11.5,9.5-11.5,17.7c0,8.6,5.6,15.8,13.9,18c7.3,1.9,13.1,0.2,18.3-5.3c3.5-3.7,4.8-7.3,4.8-13.7
	c0-7.1-3.7-12.8-10.4-16.1C82.4,185.4,78.6,185.3,73.2,187.8z"/>
<path d="M197.4,187.3c-17.7,6.5-16.2,32.3,2.1,36.4c7.1,1.6,12.9-0.4,18-6.2C230.1,203.2,215.1,180.7,197.4,187.3z"/>
<path d="M320.2,187.4c-8,2.8-13.4,12.2-12.1,20.9c2,12.3,15.7,19.4,27,14.1c5.6-2.7,10.6-10.6,10.6-16.9c0-7.9-6.3-16.5-13.5-18.5
	C327.1,185.6,325.1,185.7,320.2,187.4z"/>
<path d="M443.9,187c-4.8,1.4-10.6,7.7-12.1,13.1c-3.3,11.6,5.5,23.7,17.2,24c5.5,0.1,8.4-0.8,12.6-3.9c11.8-8.9,7.7-29.3-6.7-33.3
	C450.5,185.7,448.4,185.7,443.9,187z"/>
<path d="M568.7,186.6c-9.3,3.4-14,9.4-14,17.9c0,2.9,0.5,6.5,1.1,8.1c1.3,3.5,5.5,8,9.2,9.9c3.4,1.8,11.1,2,15.2,0.4
	c9.2-3.5,14.1-15.8,10.1-25.3C587.1,189.9,575.6,184.1,568.7,186.6z"/>
<path d="M690.3,187.4c-4.9,1.7-10.2,6.9-11.7,11.3c-4.2,12.6,4.9,25.4,18,25.4c5.4,0,9.4-1.7,13.3-5.9c3.5-3.7,4.8-7.3,4.8-13.6
	c0-8.1-4.9-14.8-12.9-17.5C697.5,185.6,695.2,185.6,690.3,187.4z"/>
<path d="M813.3,187.3c-11.7,4.3-16.2,18.7-9,28.9c10.6,14.9,33.7,7.5,33.9-10.8C838.3,192.4,825.3,182.9,813.3,187.3z"/>
<path d="M936.9,187c-4.7,1.4-10.9,8-12.2,13.1c-3.3,12.2,5.5,24,18,24c6.2,0,12.3-3.2,15.7-8.4c3.6-5.4,3.9-14.4,0.7-19.8
	C954.8,188.5,944.9,184.6,936.9,187z"/>
<path d="M1059.9,187c-5.1,1.5-10.7,7.8-12.1,13.7c-3.8,15.7,12.3,28.7,26.5,21.4c4.8-2.4,6.9-4.7,8.9-9.5
	c4.3-10.3-1.7-22.7-12.3-25.7C1066.5,185.7,1064.4,185.7,1059.9,187z"/>
<path d="M1183.2,187.1c-7.6,2.7-12.5,9.6-12.5,17.5c0,6.3,1.3,9.9,4.8,13.6c4,4.3,7.8,5.8,13.8,5.8c9.8,0,17.4-6.9,18.2-16.5
	c0.6-7.1-1.1-11.7-5.8-16C1196.1,186.4,1189.5,184.9,1183.2,187.1z"/>
<path d="M15.1,248.9c-16,3.7-20.2,24.8-6.8,34c5.1,3.4,13.6,3.9,19.2,1.1c8.6-4.4,12.4-15.3,8.4-24.3
	C32.4,251.7,23.3,247,15.1,248.9z"/>
<path d="M140.2,248.4c-0.5,0.2-2.2,0.6-3.7,0.9c-3.4,0.8-9.4,5.9-11.4,9.8c-2,3.8-2,12.8,0,16.6c2.2,4.3,8.1,9,12.1,9.8
	c19.6,3.6,31.2-17.4,17.7-31.8C152,250.6,143.3,247.5,140.2,248.4z"/>
<path d="M261.2,248.9c-4.4,1-6.9,2.5-10.3,6.4c-10.3,11.7-1.4,30.6,14.3,30.6s24.6-18.9,14.3-30.6
	C274.6,249.7,267.9,247.4,261.2,248.9z"/>
<path d="M383.4,249.4c-11,2.8-16.6,14.6-12.2,25.2c3,7.2,9.3,11.3,17,11.3c9,0,15.8-5.2,18-13.8c2.1-7.8,0.2-13.6-6-19
	c-3.1-2.8-4.7-3.5-10.5-4.6C388.8,248.3,386,248.7,383.4,249.4z"/>
<path d="M507.3,249.1c-12.7,2.8-18.5,17.8-11.2,28.8c7.3,11.1,25,10.5,31.5-1c3.5-6.3,3.7-11.2,0.7-17.5
	C524.2,251.1,516.1,247.1,507.3,249.1z"/>
<path d="M631.2,248.9c-5.3,1.2-9.4,4-12.3,8.2c-2.2,3.4-2.7,5.3-2.7,10.3c0,5.1,0.5,6.9,2.8,10.2c9.2,13.3,28.6,10.4,33.7-5
	C656.9,259.6,644.4,245.8,631.2,248.9z"/>
<path d="M754,248.9c-14.1,3.2-19.5,19.8-10,30.7c10.8,12.3,30.9,5.8,32.5-10.6C777.7,256.6,766,246.1,754,248.9z"/>
<path d="M879.2,248.4c-0.5,0.2-2.2,0.6-3.7,0.9c-3.5,0.8-9.4,5.9-11.5,10c-0.9,1.7-1.6,5.3-1.6,8.1c0,19.4,26.5,25.8,35.3,8.5
	c3.9-7.7,1.8-17.6-5-23.4c-1.7-1.4-4.2-2.8-5.6-3.1C882,248.3,880.2,248.1,879.2,248.4z"/>
<path d="M1000.2,248.9c-1.6,0.3-4,1.2-5.1,1.8c-3.7,1.9-8.3,8-9,11.7c-2.4,13,5.7,23.5,18.1,23.5c12.3,0,20.5-10.6,18.1-23.5
	C1020.6,253.8,1009.2,246.8,1000.2,248.9z"/>
<path d="M1122.4,249.4c-11.3,2.9-16.8,15.1-11.8,26.1s20,14,29.1,5.8c4.4-4,6.3-8.6,6.2-15c-0.1-5.4-2-9.2-6.7-13.2
	c-3.1-2.8-4.7-3.5-10.5-4.6C1127.8,248.3,1125,248.7,1122.4,249.4z"/>
<path d="M74.3,311.3c-7.8,2.9-12.6,9.7-12.6,18.1c0,7.7,4.1,14,11.3,17c8,3.3,17.1,0.8,22.4-6.1c2.2-3,2.8-4.9,3.1-10.3
	c0.3-5.8,0-7.1-2.4-10.8C91.3,311.9,82,308.5,74.3,311.3z"/>
<path d="M197.3,311.4c-15.3,5.4-16.8,27.4-2.4,34.4c14.8,7.1,30.5-5.4,26.7-21.2c-1.4-6.1-6.7-11.7-12.5-13.5
	C204,309.6,202.2,309.6,197.3,311.4z"/>
<path d="M320.2,311.3c-7.1,2.7-12.5,10.7-12.5,18.6c0.1,6,6.3,14.7,12.3,16.9c3.9,1.5,10.1,1.4,14-0.3c4.1-1.7,9.1-7.4,10.7-12.1
	C349.4,320.3,334.3,306.2,320.2,311.3z"/>
<path d="M443.7,311.2c-8.6,2.8-14.4,13.7-12,22.6c1.3,5,6.3,10.9,10.7,12.7c7.9,3.3,18.4,0.2,23-6.7c6.9-10.5,1.5-25.5-10.4-28.8
	C450.4,309.7,448.3,309.7,443.7,311.2z"/>
<path d="M567.8,311.1c-5.1,1.4-7.9,3.7-10.8,8.5c-2.2,3.7-2.5,5.3-2.1,10.7c0.3,5,1,7.1,3.1,10c10.9,14.2,33.7,6.8,33.7-10.9
	c0-2.5-0.6-6-1.4-7.8c-1.7-4.3-7.6-9.3-12.3-10.6C573.6,309.7,572.4,309.7,567.8,311.1z"/>
<path d="M690.3,311.3c-7.8,2.9-12.6,9.7-12.6,18.1c0,7.7,4.1,14,11.3,17c8,3.3,17.1,0.8,22.4-6.1c3.9-5.2,4.5-14.5,1.2-20.4
	C708.3,312.4,698.2,308.4,690.3,311.3z"/>
<path d="M813.3,311.4c-15.3,5.4-16.8,27.4-2.4,34.4c14.7,7.1,30.5-5.4,26.7-21.2c-1.4-6.1-6.7-11.7-12.5-13.5
	C820,309.6,818.2,309.6,813.3,311.4z"/>
<path d="M937.4,310.9c-7.4,2.2-13.7,10.5-13.7,18c0,4.5,3,10.8,6.6,14.2c9.4,8.7,23.9,5.5,29.5-6.7
	C966.4,322.1,952.5,306.4,937.4,310.9z"/>
<path d="M1060.2,311.1c-12.7,4.5-17.3,19.8-8.8,29.8c10.6,12.7,31.2,6.8,33.1-9.5C1086,317.9,1072.7,306.7,1060.2,311.1z"/>
<path d="M1182.2,311.8c-8.5,4-11.9,9.5-11.3,18.6c0.5,7.4,3.6,12.3,9.8,15.5c6.5,3.3,15.9,2.1,21.3-2.8c5.2-4.7,7.2-14.7,4.3-21.5
	c-2.5-6.2-11.2-11.7-18.1-11.7C1187.1,309.9,1184.4,310.8,1182.2,311.8z"/>
<path d="M11.1,373.8c-8,3.6-12.7,13.6-10.5,21.9c1.3,4.7,6,10.6,10.2,12.8c1.5,0.7,5.1,1.4,7.9,1.4c20.4,0,26.2-27.7,7.5-36.1
	C21.1,371.4,16.3,371.5,11.1,373.8z"/>
<path d="M136.5,372.9c-13.1,3.9-17.5,21.5-7.8,31.6c4.2,4.2,8.7,5.8,15.5,5.2c15-1.3,22-20.1,11.7-31.2
	C150.8,373,143.2,370.9,136.5,372.9z"/>
<path d="M259.2,373.2c-5.7,2.3-7.4,3.7-10.1,8.3c-2.3,3.9-2.6,5.3-2.2,10.9c0.3,5.3,0.9,7.1,3.4,10.2c4,5,8.7,7.3,14.9,7.3
	c6.2,0,10.9-2.3,14.9-7.3c6.3-7.8,4.2-21.3-4.3-27.1C271.4,372.4,263.7,371.3,259.2,373.2z"/>
<path d="M380.8,374.1c-9.8,5.1-13.6,15.3-9.3,25c3.8,8.7,14,13,23.4,9.9c13.8-4.6,16.2-25.5,3.9-33.6
	C393.2,371.7,386.3,371.2,380.8,374.1z"/>
<path d="M504.2,373.8c-18.7,8.4-12.9,36.1,7.5,36.1c6.1,0,9.6-1.7,13.8-6.4c6-6.9,6.4-16.3,1-23.7
	C521.3,372.6,512.2,370.1,504.2,373.8z"/>
<path d="M627.2,373.8c-14.4,6.6-15.3,25.5-1.7,33.8c5.2,3.2,13.1,3.1,18.8-0.2c4.5-2.7,9.4-10.6,9.4-15.4c0-7.8-4.6-15.1-11.5-18.2
	C637.1,371.4,632.3,371.4,627.2,373.8z"/>
<path d="M749.9,374c-11.3,5.6-14.3,20-6,29.5c4.2,4.7,7.7,6.4,13.8,6.4c20.4,0,26.2-27.7,7.5-36.1
	C759.9,371.4,755.1,371.4,749.9,374z"/>
<path d="M875.5,372.9c-7.7,2.3-13.1,9.9-13.1,18.5c0,19.6,27.3,25.8,35.4,8.1c4.7-10.3,0.7-20.9-9.6-25.7
	C884,371.8,879.9,371.5,875.5,372.9z"/>
<path d="M998.5,372.8c-4.7,1.5-8.6,5-10.8,9.7c-4.6,9.5-1,20.9,8.1,25.7c5.2,2.8,14.6,2,19.3-1.6c13.6-10.5,7.8-32.7-9-34.2
	C1003.4,372.2,1000,372.4,998.5,372.8z"/>
<path d="M1121.2,373c-4,1.5-9.4,6.7-11.1,10.6c-2,4.6-1.7,11.7,0.6,16.3c5.5,10.8,20,13.5,29,5.4s8-23.4-1.9-29.9
	C1133.4,372.5,1125.7,371.4,1121.2,373z"/>
<path d="M71.9,436c-10.4,5.2-13.4,20-6,29.4c5.6,7.2,18.3,8.7,25.4,2.9c5.1-4.1,7.4-8.8,7.4-15.2c0-8.5-3.9-14.6-11.3-17.7
	C82.3,433.3,77,433.5,71.9,436z"/>
<path d="M196.2,435.3c-17.7,7.8-13.7,34.5,5.4,36.4c6.6,0.6,11.3-1.2,15.5-5.8c5.6-6.2,6.8-14.7,3.1-22
	C216.1,435.8,204.4,431.7,196.2,435.3z"/>
<path d="M319.2,435.6c-4.6,2.4-7.6,5.4-9.6,9.8c-2.5,5.5-2.4,10.2,0.6,16.1c7.2,14.4,26.9,13.8,33.6-1.1c4.4-9.7-0.1-20.7-10.3-25
	C328.8,433.5,323.1,433.5,319.2,435.6z"/>
<path d="M442.7,435.5c-5.2,2.3-8.8,6.1-10.6,11.6c-5.2,15.9,11,30.1,26.1,22.8c11.2-5.4,14-20,5.7-29.2
	C457.9,434,450.3,432.2,442.7,435.5z"/>
<path d="M565.7,435.4c-4.6,2.1-6.8,4.2-9.2,8.9c-2.9,5.8-2.2,15,1.5,20c8.6,11.2,25.5,9.8,31.8-2.6c4.1-8.1,1.2-19.6-6.3-24.5
	C578.6,433.9,570.8,433.2,565.7,435.4z"/>
<path d="M687.9,436c-8,4-12.2,14.4-9.3,23.2c4.8,14.3,23.5,17.2,32.8,5.1c5.2-6.9,4.1-19.8-2.4-25.6
	C703.6,433.7,694.7,432.6,687.9,436z"/>
<path d="M812.2,435.3c-4,1.7-9,7.5-10.5,12.1c-1.7,5.1-0.7,11.8,2.3,16.4c4.6,6.9,15.1,10,23,6.7c6-2.5,11.7-11.1,11.7-17.7
	c0-3-3-10.3-5.3-12.8C828.4,434.6,818.7,432.5,812.2,435.3z"/>
<path d="M936.9,434.7c-6.7,2.1-13.2,11-13.2,18.2c0,7.9,7.4,17.2,14.5,18.6c9.2,1.7,17-2,21-10c3.1-6.2,3.2-10.9,0.3-16.6
	c-3.4-6.6-8.6-10.3-15-10.6C941.6,434.1,938.2,434.3,936.9,434.7z"/>
<path d="M1058.1,435.8c-8,3.7-12.7,13.6-10.4,22c0.6,2.3,2.7,6,4.6,8.1c11.9,13.2,33.7,3.3,32.2-14.5
	C1083.4,438.2,1069.9,430.2,1058.1,435.8z"/>
<path d="M1182.8,434.9c-12.6,5.4-16.3,21.1-7.2,31.4c6.1,7,18.9,7.4,26.5,0.7c8.3-7.3,7-23.5-2.6-29.8
	C1195.2,434.3,1186.9,433.2,1182.8,434.9z"/>
<path d="M12.2,497.4C3.9,500.3-1.7,511,0.7,519.7c2.8,10.8,15.4,17.1,25.3,12.8c3.9-1.7,9.2-7.1,10.6-10.9
	c3.5-9.3-1.5-20.1-11.1-24.2C21,495.6,17.5,495.5,12.2,497.4z"/>
<path d="M136.2,497.1c-4.9,1.8-8.4,4.7-10.6,9c-2.2,4.3-2.7,11.7-1.1,15.9c5.7,14.7,27.3,15.7,34.1,1.7c4.9-10.3,1-21.1-9.4-25.9
	C144.8,495.7,140.7,495.5,136.2,497.1z"/>
<path d="M259.2,497.2c-7.9,3.1-12.5,9.5-12.5,17.4c0,12.1,9,20.4,20.6,19c18.1-2,22.6-26.5,6.5-34.9
	C268.1,495.7,264.1,495.3,259.2,497.2z"/>
<path d="M381.2,497.7c-10.5,5-14.3,15.7-9.4,26c7.3,15,30.2,12.6,34.4-3.6c3.1-11.7-4.3-22.5-16.1-23.8
	C386.5,496,384.1,496.3,381.2,497.7z"/>
<path d="M504.2,497.7c-12.7,6.1-15.4,21.4-5.4,30.9c15.9,15,40.1-4.9,28.7-23.5C522.8,497.4,512,494,504.2,497.7z"/>
<path d="M628.4,497.4c-5,1.7-8.5,5-10.8,10c-4.3,9.3-0.4,19.6,9.3,24.6c9.3,4.8,20.9,0,25.3-10.3c4.1-9.9-1.8-21.8-12.3-24.8
	C635.1,495.6,633.1,495.7,628.4,497.4z"/>
<path d="M752.4,496.9c-9.3,2.8-15.3,13.5-12.7,22.8c4.1,15.5,24.7,19,33.8,5.7C783.2,511.4,768.8,492,752.4,496.9z"/>
<path d="M875.5,496.9c-16.1,4.8-17.7,28.2-2.4,35.1c14.4,6.5,29.2-5.6,26.2-21.6C897.5,500.9,885.3,493.9,875.5,496.9z"/>
<path d="M999.7,496.6c-9.3,3.4-14,9.4-14,18c0,15.7,16,24.5,29,15.9c9.7-6.4,10.8-22.3,2.1-29.4
	C1011.9,497.1,1004.1,495,999.7,496.6z"/>
<path d="M1120.2,497.8c-10.4,4.8-14.3,15.6-9.4,25.9c6.8,14,28.4,13,34.1-1.7c2.7-7.1-0.3-17.9-5.9-21.9
	C1132.6,495.7,1126.4,494.9,1120.2,497.8z"/>
<path d="M71.9,560c-12.5,6.2-13.6,25-1.9,32.7c5.8,3.8,14.6,3.8,20.5-0.1c5.3-3.4,8.2-9,8.2-15.7c0-8.3-4-14.4-11.3-17.5
	C82.3,557.3,77,557.5,71.9,560z"/>
<path d="M196.4,559.3c-12.5,5.5-15.6,21.7-6,30.8c10.7,10.2,26.7,5.9,31.2-8.3C226.1,567.7,209.9,553.3,196.4,559.3z"/>
<path d="M319.2,559.8c-15.4,7.1-15,28,0.7,34.6c9.2,3.8,19.5-0.5,23.9-10c4.5-9.6-0.1-20.7-10.3-25
	C328.6,557.4,324.1,557.5,319.2,559.8z"/>
<path d="M442.2,559.8c-11.1,5-14.5,18.2-7.4,28.1c5.5,7.6,14.8,9.9,22.9,5.7c14.8-7.5,14.6-27-0.5-33.8
	C452.1,557.4,447.3,557.5,442.2,559.8z"/>
<path d="M566.8,558.9c-7.8,3.3-12.1,9.7-12.1,18c0,9.4,6.2,16.9,15.3,18.6c7.9,1.4,17.2-3.7,20.3-11.2c3.3-7.9,0.3-18.5-6.6-23
	C579.5,558.5,570.7,557.3,566.8,558.9z"/>
<path d="M687.9,560c-11.1,5.6-13.6,20.2-5,29.5c11.7,12.7,31.8,4.7,31.8-12.6C714.7,562.8,700.2,553.7,687.9,560z"/>
<path d="M813.3,558.9c-3.7,1.2-9.4,6.6-11.2,10.7c-5.1,11.9,4.7,26.3,17.9,26.3c5,0,11.8-3.9,15.2-8.8c2.5-3.6,3-5.3,3-10.2
	c0-4.9-0.5-6.6-3-10.2C830.1,559.5,821.6,556.5,813.3,558.9z"/>
<path d="M935.2,559.8c-15.4,7.1-15,28,0.7,34.6c9.2,3.8,19.5-0.5,23.9-10c4.5-9.6-0.1-20.7-10.3-25
	C944.6,557.4,940.1,557.5,935.2,559.8z"/>
<path d="M1058.2,559.8c-11,5-14.5,18.3-7.3,28.2c5.4,7.5,14.7,9.8,22.8,5.6c6.5-3.3,10.2-8.5,10.7-14.9
	C1085.6,563.9,1071.4,553.7,1058.2,559.8z"/>
<path d="M1181.7,559.4c-7.1,3.3-11,9.4-11,17.5c0,10.7,7.5,18.5,17.9,18.5c10.9,0,18-6.5,18.9-17c0.9-10.8-6.4-19.5-17.1-20.2
	C1187.1,558,1183.9,558.5,1181.7,559.4z"/>
<path d="M10.6,621.8c-10,5.5-13.5,17.6-7.9,26.8c3,5,8.5,8.5,13.9,9.1c6.7,0.6,11.3-1.2,15.9-6.2c8.2-8.8,6.5-21.7-3.6-28.6
	C24.2,619.6,15.6,619.1,10.6,621.8z"/>
<path d="M133.5,621.9c-4,2.1-8.1,7-9.3,10.9c-1.3,4.2-0.6,10.9,1.4,15c9.3,18.1,36.6,9.9,34.9-10.4
	C159.4,623.9,145.2,615.8,133.5,621.9z"/>
<path d="M257.7,621.5c-7.1,3.1-11,9.2-11,17.4c0,8.3,4,14.4,11.3,17.5c6.4,2.7,15,1.3,20-3.3c7.4-6.7,7.4-21.7,0-28.4
	C273,620.1,264.1,618.7,257.7,621.5z"/>
<path d="M379.9,622c-12.5,6.2-13.6,25-2,32.6c11.2,7.4,25.7,1.4,28.7-11.8C410.1,627.4,394.1,615,379.9,622z"/>
<path d="M504.2,621.2c-9.5,4.3-13.9,15.9-9.6,25.2c4.7,10.2,15.6,14.4,25,9.5c17.4-8.8,12.5-34.6-6.7-35.7
	C509.5,620,506,620.4,504.2,621.2z"/>
<path d="M627.2,621.3c-6.3,2.9-11.5,11-11.5,17.9c0,1.8,1,5.3,2.3,7.7c7.5,14.8,27,14.6,33.8-0.5c2.5-5.4,2.4-10.2-0.3-15.5
	c-3.5-6.8-8.6-10.3-15.6-10.7C632.5,620,629,620.4,627.2,621.3z"/>
<path d="M749.6,621.9c-9.9,5.2-13.6,17.5-7.9,26.7c4.5,7.4,14.1,11.1,22.2,8.4c6.8-2.2,12.8-11,12.8-18.5
	c-0.1-6.6-6.1-15.2-12.3-17.5C760.1,619.4,753.6,619.8,749.6,621.9z"/>
<path d="M872.5,621.9c-13.5,7.2-13.4,26.8,0.2,33.8c13.1,6.7,28-3.5,26.8-18.3C898.4,623.9,884.2,615.8,872.5,621.9z"/>
<path d="M996.7,621.5c-4.5,2-6.8,4.1-9.1,8.6c-3.6,7-1.8,18,3.8,23c5,4.6,13.6,6,20,3.3c4.8-2,7.1-4.1,9.4-8.7c3.6-7,1.8-18-3.8-23
	C1012,620.1,1003.1,618.7,996.7,621.5z"/>
<path d="M1118.9,622c-9,4.5-12.7,16-8.2,25.4c5.9,12.3,23.2,14.1,31.3,3.3c3.1-4.1,4-7,3.9-12.4
	C1145.6,624.4,1131.4,615.8,1118.9,622z"/>
<path d="M72.2,683.5c-7.6,4.2-10.9,10.1-10.3,18.5c0.8,11.1,9.3,18.7,19.8,17.7c10.1-1,17-8.7,17-19c0-6.4-2.3-11.1-7.4-15.2
	c-3-2.5-4.7-3.1-9.9-3.3C77.1,682,74.3,682.4,72.2,683.5z"/>
<path d="M193.5,684.8c-11.1,7.1-11.7,22.3-1.1,31c10.2,8.4,26.1,2.6,29.3-10.7C225.6,688.6,207.8,675.8,193.5,684.8z"/>
<path d="M318.1,683.9c-6.2,3.1-10.4,10.1-10.4,17.4c0,4,3,10.5,6.1,13.3c9.7,8.9,24.5,5.8,30-6.2c2.4-5.1,2.4-9.9,0-15
	C339,683.1,328,679,318.1,683.9z"/>
<path d="M442.2,683.3c-4.3,1.9-9.2,7.8-10.6,12.8c-3.9,14.5,11.2,28,24.9,22.3c14.4-6.1,16.4-25.4,3.4-33.6
	C454.7,681.5,447.6,680.9,442.2,683.3z"/>
<path d="M565.2,683.5c-7.3,3.8-10.5,9.1-10.5,17.4c0,18.4,23.7,26,33.8,10.8c5-7.6,3.8-19.4-2.4-24.9
	C580.5,681.9,571.1,680.4,565.2,683.5z"/>
<path d="M688.2,683.5c-6.9,3.8-10.5,9.6-10.5,17c0,19.1,24,26.5,34.1,10.6c5.4-8.5,3.5-19.1-4.5-25.6c-3-2.5-4.7-3.1-9.9-3.3
	C693.1,682,690.3,682.4,688.2,683.5z"/>
<path d="M810.4,684c-2,1.1-4.9,3.8-6.5,6.1c-2.3,3.5-2.7,5.2-2.7,10.9c0,6,0.3,7.1,3.1,10.6c3.6,4.6,10.5,8.3,15.4,8.3
	c11.7-0.1,21.2-12.5,18.1-23.8c-1.4-5.1-6.4-11-10.8-12.8C822.4,681.3,814.9,681.6,810.4,684z"/>
<path d="M935.2,683.3c-6.2,2.8-11.5,11-11.5,17.8c0,4.1,3,10.6,6.1,13.5c9.7,8.9,24.5,5.8,30-6.2c2.6-5.6,2.4-10.4-0.9-16.6
	c-2-3.9-3.8-5.8-7.1-7.6C946.8,681.6,939.9,681.2,935.2,683.3z"/>
<path d="M1058.2,683.3c-1.7,0.7-4.5,2.9-6.2,4.9c-12.9,14.8,2.6,37.6,20.5,30.2c14.4-6.1,16.4-25.4,3.4-33.6
	C1070.7,681.5,1063.6,680.9,1058.2,683.3z"/>
<path d="M1180.8,683.6c-1.9,1-4.8,3.5-6.5,5.6c-4.1,5.1-4.9,14.3-1.7,20.5c4.5,8.8,15.7,12.5,24.6,8.2c12.4-6,14.1-24.1,3-32.6
	C1195.4,681.6,1186.1,680.8,1180.8,683.6z"/>
<path d="M10.6,745.9c-13.1,6.9-14.2,24.5-2,32.5c9.7,6.4,22.4,2.7,27.2-8C39.2,763,38,756,32.4,750
	C26.5,743.8,17.7,742.1,10.6,745.9z"/>
<path d="M134.1,745.8c-4.3,1.9-8.6,6.8-9.9,11c-2.2,7.2,0.8,17,6.3,21c7.9,5.6,17,5,24.2-1.5c4.6-4.2,6.4-8.9,5.8-15.5
	C159.2,747.9,146,740.4,134.1,745.8z"/>
<path d="M258.8,745c-7.6,3.1-12.1,9.6-12.1,17.9c0,6,1.7,9.6,6.4,13.7c8.9,7.9,21.5,6.3,27.7-3.6c4.8-7.4,3.5-18.7-2.8-24.3
	C273.4,744.5,264.4,742.8,258.8,745z"/>
<path d="M379.9,746c-10.7,5.3-13.6,20.1-5.6,28.9c16.4,18.1,43.4-4.4,28.7-23.9C397.8,744.3,387.8,742.1,379.9,746z"/>
<path d="M504.2,745.3c-1.6,0.7-4.5,2.8-6.3,4.7c-9.7,10-4.7,27.3,9,30.9c13.5,3.7,26.5-9.3,22.9-22.8
	C526.9,747.3,514.1,740.9,504.2,745.3z"/>
<path d="M627.2,745.5c-6.8,3.5-11.5,10.6-11.5,17.4c0,7.8,6.2,15.9,13.8,18c4.6,1.2,5.8,1.2,10.4,0c10.5-3,16.4-14.9,12.3-24.8
	C648,746.1,635.9,741,627.2,745.5z"/>
<path d="M749.6,745.9c-13.1,6.9-14.2,24.5-2,32.5c9.7,6.4,22.4,2.7,27.2-8c3.4-7.4,2.2-14.4-3.4-20.4
	C765.5,743.8,756.7,742.1,749.6,745.9z"/>
<path d="M873.2,745.8c-5.5,2.5-8.5,6.1-10.1,12c-3.8,14.9,10,28,24.1,22.7c5.5-2.1,11.2-8.3,12.1-13.1
	C902.3,751.5,887.5,739.2,873.2,745.8z"/>
<path d="M997.8,745c-10.7,4.3-15.1,16.1-10,26.6c3.6,7.5,13.7,11.8,21.5,9.3c4.3-1.4,9.8-6.1,12-10.2c3.1-6,0.9-17.3-4.3-22
	C1012.4,744.5,1003.4,742.8,997.8,745z"/>
<path d="M1118.9,746c-8,4-12.2,14.4-9.3,23.2c1.5,4.6,7.8,10.2,13.1,11.8c4.9,1.5,11.4,0.2,16.2-3.2c5.5-4,8.5-13.8,6.3-21
	C1142,746.3,1129.1,741,1118.9,746z"/>
<path d="M72.2,807.6c-7.6,4-10.9,9.9-10.3,18.4c0.5,7.5,4,12.9,10.3,15.9c8.9,4.3,20.1,0.6,24.5-8c3.7-7.2,2-18.2-3.6-23.1
	S78.1,804.4,72.2,807.6z"/>
<path d="M194.9,808c-10.9,5.4-13.6,20.1-5.4,29.1c6.2,6.9,13.7,8.6,21.8,4.9c11.4-5.2,14.5-20.3,6.1-29.8
	C211.6,805.7,203,804,194.9,808z"/>
<path d="M319.2,807.3c-6.4,2.9-11.4,10.6-11.5,17.6c0,4.9,3.7,11.8,8.3,15.4c3.5,2.8,4.6,3.1,10.7,3.1c6.1,0,7.2-0.3,10.7-3.1
	c4.6-3.6,8.3-10.5,8.3-15.4c-0.1-7-5.9-15.5-12.3-17.9C329.6,805.5,322.8,805.7,319.2,807.3z"/>
<path d="M442.2,807.3c-5.9,2.5-11.5,11.2-11.5,17.7c0,3,3,10.3,5.3,12.8c3,3.2,9.4,6.1,14,6.1c10.8,0,19.7-10.4,18.4-21.6
	C467.1,810.2,453.4,802.4,442.2,807.3z"/>
<path d="M564.5,807.9c-6.1,3.2-9.2,8.2-9.6,15.5c-0.3,4.8,0,7,1.7,10.2c8.8,17.4,35.1,10.9,35.1-8.5c0-4.6-2.1-10.5-4.8-13.5
	C581.9,806,571.4,804.3,564.5,807.9z"/>
<path d="M688.2,807.6c-6.9,3.6-10.5,9.5-10.5,16.9c0,20,26.1,26.8,35.1,9.1c3-5.9,2.4-15.1-1.4-20.1
	C706,806.5,695.3,803.8,688.2,807.6z"/>
<path d="M810.9,808c-7.5,3.7-11.5,12.4-9.8,21.4c0.8,4.3,6.8,11.3,11.3,13.2c6.6,2.7,16,0.6,21-4.8c2.3-2.5,5.3-9.8,5.3-12.8
	c0-6.6-5.7-15.2-11.7-17.7C822.3,805.3,815.8,805.6,810.9,808z"/>
<path d="M935.2,807.3c-4,1.8-8,6.2-9.9,10.8c-6.4,15.2,10.6,31.4,25.2,23.9c6.7-3.5,11.2-10.4,11.2-17.4c0-4.8-4.4-12.8-8.6-15.6
	C948.7,806,939.8,805.1,935.2,807.3z"/>
<path d="M1058.2,807.3c-4.2,1.8-9.2,7.8-10.5,12.6c-5,18.5,17.9,32,31.3,18.4c9.1-9.1,6.7-24.8-4.5-30.3
	C1069.5,805.6,1062.7,805.3,1058.2,807.3z"/>
<path d="M1180.7,807.8c-1.9,1-4.8,3.5-6.4,5.5c-5.9,7.2-4.4,20.7,2.9,26.4c9.3,7.3,23.4,4.3,28.4-6c3.4-7.2,2.3-16.6-2.7-22.1
	S1187.3,804.2,1180.7,807.8z"/>
<path d="M9.7,870C-1,876.2-3,890.9,5.6,899.9c5.6,5.9,13.3,7.4,20.6,4.1c10.8-4.9,14.7-18.2,8.1-28.1C29.3,868.3,17.5,865.4,9.7,870
	z"/>
<path d="M134.2,869.3c-16.6,7.4-12.9,33.3,5.2,36.2c7.6,1.2,16.9-4.1,19.9-11.3c2.7-6.3,1.1-15.7-3.4-20.6
	C151.2,868.4,140.8,866.4,134.2,869.3z"/>
<path d="M257.2,869.5c-6.9,3.6-10.5,9.6-10.5,17.5c0,9.9,6.8,17.4,16.7,18.5c7,0.8,14.8-3.4,18.1-9.6c3.4-6.5,2.8-15.4-1.4-20.7
	c-1.7-2.1-4.6-4.6-6.5-5.5C269.4,867.5,261.2,867.4,257.2,869.5z"/>
<path d="M380.2,869.5c-4.5,2.3-6.6,4.5-8.6,8.9c-3.7,8-2,16.6,4.4,22.2c12.6,11,31,2.6,31-14.2c0-7.7-4.8-14.9-11.6-17.4
	C391.3,867.4,383.7,867.7,380.2,869.5z"/>
<path d="M502.4,870c-10.2,5.4-12.6,19.9-4.9,29.1c9.9,11.8,28.2,7.1,32.3-8.2c2.1-8-2.5-17.6-10.2-21.6
	C515.6,867.3,507,867.6,502.4,870z"/>
<path d="M624.6,870.8c-3.4,2.1-5.1,4.1-6.7,7.9c-1.2,2.8-2.2,6.1-2.2,7.4c0,13.6,13.7,23.3,25.8,18.3c4.9-2.1,8.1-5.2,10.3-10
	C659.6,877.5,640.3,860.8,624.6,870.8z"/>
<path d="M749.2,869.8c-7.8,4.7-11.6,13.2-9.6,21.1c3.8,14.4,19.6,19.5,30.6,9.8c9.6-8.4,7.8-25.1-3.5-30.8
	C761.6,867.3,753.3,867.2,749.2,869.8z"/>
<path d="M873.7,869c-10.2,4.1-14.4,17.4-8.7,27.2c6.3,10.6,19.1,12.6,28.4,4.4c4.3-3.8,6.3-8.2,6.3-13.7c0-4.5-2.1-10.4-4.8-13.3
	C890.4,868.6,880.2,866.4,873.7,869z"/>
<path d="M995.8,869.7c-1.9,0.9-4.8,3.4-6.5,5.5c-2.5,3.1-3.1,4.9-3.4,10.2c-0.4,5.6-0.1,7,2.2,10.9c3.6,6.1,8.6,9,15.6,9.1
	c7.1,0,12.4-2.6,15.8-7.8c2.3-3.5,2.7-5.1,2.7-11.3c0-6.6-0.3-7.6-3.1-11.1c-4-5-8.7-7.3-14.9-7.3
	C1001.4,867.9,997.7,868.7,995.8,869.7z"/>
<path d="M1119.2,869.5c-4.5,2.3-6.6,4.5-8.6,8.9c-3.7,8-2,16.6,4.4,22.2c6.9,6,15.4,6.7,22.9,1.8c6.8-4.5,9.7-14.2,6.9-22.7
	c-1.3-4-6.4-9.2-10.4-10.7C1130.3,867.4,1122.7,867.7,1119.2,869.5z"/>
<path d="M72.7,931.5c-6.9,3-11,9.3-11,16.9c0,6,1.9,10.3,6.3,14.2c9.1,8,22.8,5.6,28.8-5c3.1-5.6,2.4-15-1.4-20.1
	C90.1,930.6,80.6,928.1,72.7,931.5z"/>
<path d="M194.9,932c-11.6,5.8-13.5,22.2-3.6,30.8c12.2,10.8,30.7,2.1,30.8-14.4c0-6-2.3-10.5-7.7-14.8
	C209.3,929.4,201.2,928.8,194.9,932z"/>
<path d="M319.2,931.3c-3.9,1.8-8,6.2-9.9,10.8c-5.5,13.1,6.3,27.7,20.5,25.3c4.7-0.8,11.3-5.4,13.3-9.4c2.3-4.4,3-10.4,1.6-14.6
	c-1.6-4.7-6.6-10.4-10.7-12.1C329.9,929.5,323.1,929.6,319.2,931.3z"/>
<path d="M441.9,931.6c-1.8,0.8-4.5,3.1-6.2,4.9c-11.9,13.6,1.4,35.2,18.8,30.4c12.4-3.3,18-18.2,10.9-28.9
	C460.7,930.9,449.5,927.8,441.9,931.6z"/>
<path d="M564.5,931.9c-6.1,3.3-9.2,8.2-9.6,15.6c-0.4,5.4-0.1,7,2.1,10.6c2.6,4.5,7.8,8.1,13.4,9.3c7,1.4,17-4.1,19.9-11.2
	c2.9-6.8,0.9-16.8-4.3-21.5C580.7,929.8,570.9,928.6,564.5,931.9z"/>
<path d="M689.8,931c-7.4,3-12.1,9.7-12.1,17.4c0,6,1.9,10.3,6.3,14.2c9.5,8.3,23.4,5.6,29.2-5.7c2.6-5.1,1.7-14.7-1.8-19.4
	C706.4,931,696.9,928.1,689.8,931z"/>
<path d="M810.9,932c-11.6,5.7-13.5,22.2-3.6,30.8c10.7,9.5,26.8,4.2,30.4-10c1.5-6,0-11.6-4.3-16.6C827.6,929.7,819,928,810.9,932z"
	/>
<path d="M935.2,931.3c-6.9,3-12.2,12.4-11.2,19.7c1.8,13.5,17.5,21,28.6,13.6c10.2-6.8,11.8-19.2,3.8-28.4c-1.8-2-4.6-4.2-6.4-4.9
	C945.9,929.6,939.1,929.6,935.2,931.3z"/>
<path d="M1058.2,931.3c-4.3,1.8-9.2,7.8-10.5,12.7c-3.7,13.5,9.3,26.6,22.8,22.9c12.4-3.3,18-18.2,10.9-28.9
	C1076.8,931.1,1065.9,927.9,1058.2,931.3z"/>
<path d="M1180.5,931.9c-6.2,3.3-9.2,8.2-9.6,15.9c-0.3,5.8,0,7.1,2.4,10.8c2.9,4.3,7.8,7.6,13.1,8.8c7,1.4,17-4.1,19.9-11.2
	c2.9-6.8,0.9-16.8-4.3-21.5C1196.7,929.8,1186.9,928.6,1180.5,931.9z"/>
<path d="M11.2,993.3c-13.7,6.2-14.7,26.1-1.6,33.4c4.4,2.5,11.7,3.1,16.2,1.4c10.9-4.2,15.1-18.2,8.5-28.2
	C29.6,992.8,19.1,989.8,11.2,993.3z"/>
<path d="M134.2,993.3c-6.7,3.1-10.7,9.7-10.6,17.8c0,5.3,1.1,8,5,12.1c3.8,4.1,7.5,5.8,13.1,5.9c14,0.1,22.9-13.6,17.2-26.4
	c-2.9-6.7-8-10.1-15.6-10.5C139.6,992,136,992.4,134.2,993.3z"/>
<path d="M256.7,993.8c-5.7,3-9.3,8.3-9.8,14.5c-0.2,2.9,0.1,6.9,0.7,8.8c3.3,10,17.1,15.1,26.7,10c3.6-1.9,8.3-8,9-11.7
	c2.4-13-5.7-23.5-18.1-23.5C262.2,991.9,258.8,992.7,256.7,993.8z"/>
<path d="M380.2,993.5c-13.9,7.2-14,26.9-0.1,34.1c3.7,1.9,12.4,2,16.1,0c6.8-3.5,10.8-9.9,10.8-17.2c0-7.7-4.8-14.9-11.6-17.4
	C391.3,991.4,383.7,991.7,380.2,993.5z"/>
<path d="M502.4,994c-11.3,6-12.8,23.4-2.5,31.2c16.5,12.6,38-6.6,27.5-24.5C522.6,992.5,511.1,989.4,502.4,994z"/>
<path d="M625.5,994.2c-9.9,6-12.5,18.2-5.9,27.4c7.5,10.4,23.7,9.9,30.8-0.9c2.3-3.4,2.8-5.3,2.8-10.3c0-5.1-0.5-6.9-2.8-10.2
	C644.8,992.1,633.5,989.3,625.5,994.2z"/>
<path d="M750.2,993.3c-6,2.7-9.9,8.1-11.1,15.5c-1,6,3.3,14.2,9.1,17.7c10.1,5.9,23,1.6,27.1-9.1c4.7-12.5-4.2-25.6-17.3-25.5
	C755.4,992,751.9,992.6,750.2,993.3z"/>
<path d="M873.7,993c-3.3,1.3-7.8,5.7-9.7,9.3c-1.8,3.5-2,12.4-0.3,15.7c3.6,7,9.8,11,17,11.1c14,0.1,22.9-13.6,17.2-26.4
	c-3-6.8-8-10.2-15.6-10.5C879,992,875.1,992.4,873.7,993z"/>
<path d="M995.7,993.8c-10.5,5.6-13.4,20-5.8,28.7c4.2,4.8,8,6.6,14.2,6.6c19.5,0.2,25.9-26.1,8.6-35.3
	C1008.2,991.3,1000.2,991.3,995.7,993.8z"/>
<path d="M1119.2,993.5c-12.1,6.3-14.1,22-4.1,31.3c2.5,2.3,11.5,5.4,13.9,4.6c0.7-0.2,2.4-0.6,3.9-0.9c3.4-0.8,9.4-5.9,11.4-9.8
	c2-3.8,2-12.8,0.1-16.5c-2-3.7-6.5-7.9-10-9.2C1130.3,991.4,1122.7,991.7,1119.2,993.5z"/>
<path d="M78.2,1053.6c-5.5,1.1-6.6,1.5-9.5,3.9c-6.4,5.4-8.8,15.2-5.6,22.7c2.5,6.2,11.1,11.7,18.2,11.7c3.6,0,11.8-4.9,14.3-8.5
	c4.5-6.7,4-17.2-1.1-23.1C90,1055.2,83.6,1052.6,78.2,1053.6z"/>
<path d="M199.3,1054.1c-11.5,2.5-17.7,15.4-12.7,26.3c8.4,18.5,35.5,12.4,35.5-8C222.1,1060.1,211.2,1051.4,199.3,1054.1z"/>
<path d="M323.1,1053.9c-9.2,2.1-14.9,9.1-14.9,18.5c0,7.3,2.3,11.7,8.4,16c3.5,2.5,5.2,3,10.1,3c4.9,0,6.6-0.5,10.1-3
	c2.3-1.7,5.3-5,6.7-7.5C350.7,1067.4,337.9,1050.5,323.1,1053.9z"/>
<path d="M446.1,1053.9c-15.8,3.6-20.2,24.6-7.2,34c15.7,11.4,36-5.8,27.9-23.6C463.3,1056.7,454.1,1052,446.1,1053.9z"/>
<path d="M571.2,1053.6c-1.1,0.2-3,0.6-4.2,0.9c-3.3,0.6-9.4,6.3-10.9,10.1c-4.1,9.6,0,20.7,8.9,24.9c2.9,1.3,6.1,2.4,7.2,2.4
	c7.3,0,16.4-6.2,18.6-12.7c1.9-5.8,0.7-13.7-2.7-18.1C583.9,1055.9,576.4,1052.6,571.2,1053.6z"/>
<path d="M691.4,1054.4c-2.6,0.7-5.9,2.3-7.3,3.6c-5.9,5.5-8.1,15-5,22.2c2.5,6.2,11.1,11.7,18.1,11.7c1.1,0,4.3-1.1,7.2-2.4
	c6.9-3.2,10.3-8.9,10.3-17c0-6.7-1.5-10.1-6.5-14.4c-3.1-2.8-4.7-3.5-10.5-4.6C696.8,1053.3,694,1053.7,691.4,1054.4z"/>
<path d="M815.3,1054.1c-14.9,3.3-19.5,23.1-7.7,33.1c12.3,10.3,30.4,1.5,30.5-14.8C838.2,1060.3,827,1051.4,815.3,1054.1z"/>
<path d="M937.9,1054.1c-5.6,1.2-11.7,7.1-13.2,12.9c-5.2,19.1,17.4,32.8,31.1,19C969.5,1072.4,956.9,1050,937.9,1054.1z"/>
<path d="M1062.2,1053.9c-4.4,1-6.9,2.5-10.3,6.4c-12.1,13.8,1.1,35.4,18.6,30.7c11.3-3.1,17.2-15.8,12.3-26.7
	C1079.4,1056.7,1070.1,1052,1062.2,1053.9z"/>
<path d="M1187.2,1053.4c-0.5,0.2-2.2,0.6-3.7,0.9c-3.7,0.8-9.8,6.3-11.4,10.3c-2.4,5.6-1.8,13.3,1.3,18.1c3.1,4.8,10.7,9.2,15.7,9.2
	c6.6-0.1,15.2-6.1,17.5-12.3c3.7-9.6-2.6-23.4-11.5-25.2C1190,1053.3,1188.2,1053.1,1187.2,1053.4z"/>
<path d="M10.6,1117.6c-16.2,8.3-12.7,31.4,5.4,35.7c6.8,1.6,16.6-3.7,19.8-10.8c4.8-10.7-0.9-23.5-11.9-26.6
	C18.4,1114.4,16.6,1114.6,10.6,1117.6z"/>
<path d="M137.5,1115.9c-12.6,3.9-18.1,18-11.1,28.7c6.5,10.2,21.1,11.7,28.9,3.1c4.2-4.5,5.6-8.7,5.2-14.9
	c-0.5-6.4-3.8-11.8-9.4-15.1C147.5,1115.6,141.1,1114.7,137.5,1115.9z"/>
<path d="M259.3,1116.4c-7.7,2.7-12.6,9.6-12.6,17.9c0,11,7.7,18.9,18.5,18.9c7.7,0,14.9-4.8,17.4-11.6c1.5-3.9,1.4-11.1-0.3-15
	c-1.7-4.3-7.6-9.3-12.3-10.6C265.2,1114.6,264.1,1114.7,259.3,1116.4z"/>
<path d="M382.3,1116.3c-17.3,6.4-16.6,31.1,1.1,36.2c12,3.5,23.4-5.2,23.5-18C407,1121.5,394.1,1112,382.3,1116.3z"/>
<path d="M505.4,1116.4c-10.8,3.8-15.7,16.2-10.4,26.5c8.2,16.3,31.3,12.6,35.1-5.6c1.8-8.3-4.6-18.7-13-21.2
	C512,1114.6,510.2,1114.6,505.4,1116.4z"/>
<path d="M628.9,1116c-4.7,1.4-10.9,8-12.2,13c-3.4,12.4,5.5,24.2,18.1,24.3c6,0,11.7-3.1,15.4-8.3c4-5.7,4.3-14.5,0.6-20.4
	C646.3,1117.3,636.9,1113.6,628.9,1116z"/>
<path d="M751.7,1116.2c-7.8,2.5-14.1,13.1-12.5,21.1c2.3,10.9,12.9,18.2,22.8,15.5c15.2-4,19.7-23.1,7.8-33.2
	C764.6,1115.3,758.4,1114.1,751.7,1116.2z"/>
<path d="M872.9,1117.4c-13.6,6.9-14.1,26.1-0.8,33.6c7.2,4.1,16.9,2.6,22.2-3.3c4.2-4.5,5.6-8.7,5.2-14.9c-0.3-4.7-1.1-6.6-3.5-9.6
	C889.6,1115.1,881.4,1113.1,872.9,1117.4z"/>
<path d="M998.3,1116.4c-7.8,2.8-12.6,9.6-12.6,18c0,6,1.9,10.3,6.3,14.2c6,5.3,13.7,6.3,20.7,2.7c3.4-1.7,7.7-6.3,8.9-9.7
	c1.5-3.9,1.4-11.1-0.3-15c-1.7-4.3-7.6-9.3-12.3-10.6C1004.2,1114.6,1003.1,1114.7,998.3,1116.4z"/>
<path d="M1121.4,1116.3c-17.3,6.4-16.6,31.1,0.9,36.2c16.3,4.7,29.5-12.8,21.1-27.9C1139.4,1117.4,1129,1113.5,1121.4,1116.3z"/>
<path d="M75.4,1178.4c-14.9,3.8-18.6,23.6-6.2,33.1c6.5,4.9,17,4.5,23.2-0.9c4.5-3.9,6.3-8.2,6.3-14.7c0-6.1-1.7-9.6-6.5-13.8
	c-3.1-2.8-4.7-3.5-10.5-4.6C80.8,1177.3,78,1177.7,75.4,1178.4z"/>
<path d="M195.2,1179.5c-4.5,2.3-6.6,4.5-8.6,8.9c-3.1,6.7-1.9,15.5,2.9,20.8c4.7,5.2,14.7,7.2,21.5,4.3c5.7-2.3,11.7-11.1,11.7-17.1
	c0-5.6-5.6-14.2-11.1-17.1C207.9,1177.4,199,1177.5,195.2,1179.5z"/>
<path d="M317.4,1180c-2,1.1-4.9,3.8-6.5,6.1c-3.7,5.6-3.8,14.5-0.4,20.1c7.5,11.9,26.7,11.4,32.8-0.9c2.9-5.9,2.5-14.1-0.9-19.3
	C337.3,1178.3,325.9,1175.5,317.4,1180z"/>
<path d="M440.2,1180.3c-6.9,4.2-10.5,13.1-8.5,20.6c1.3,4.8,6.7,11.2,11,13c5,2.1,14.2,0.9,18.5-2.4c9.8-7.5,9.8-22.7,0-30.2
	c-3.1-2.3-4.9-2.9-10.4-3.2C445.2,1177.9,443.6,1178.2,440.2,1180.3z"/>
<path d="M565.7,1179c-3.2,1.3-7.8,5.6-9.6,9.1c-1.8,3.4-1.8,11.9,0,16.1c4.3,10.4,19.5,14.2,28.3,7c5.6-4.5,7.5-8.7,7.1-16
	c-0.3-5.1-0.9-6.9-3.4-10c-1.7-2.1-4.6-4.6-6.5-5.5C577.9,1177.7,569.7,1177.4,565.7,1179z"/>
<path d="M687.8,1179.7c-12.2,6.2-13.6,23.4-2.6,31.8c6.4,4.9,17,4.5,23.1-0.8c4.7-4.2,6.4-7.7,6.4-13.7c0-6.1-1.3-9.7-4.8-13.5
	C704.6,1177.9,694.7,1176.1,687.8,1179.7z"/>
<path d="M811.2,1179.5c-4.5,2.3-6.6,4.5-8.6,8.9c-3.1,6.7-1.9,15.5,2.9,20.8c4.7,5.2,14.7,7.2,21.5,4.3c7.1-2.9,12.6-12.9,11.2-19.9
	c-1.2-5.5-4.8-10.8-9.1-13.3C824.2,1177.4,815.8,1177.1,811.2,1179.5z"/>
<path d="M933.5,1179.9c-6.5,3.5-10.6,11.8-9.4,19.3c2.7,16.8,25,21.6,34.3,7.5c4-5.9,4-14.7,0-20.6c-1.5-2.3-4.5-5.1-6.7-6.2
	C946.6,1177.3,938.5,1177.3,933.5,1179.9z"/>
<path d="M1057.2,1179.7c-5.7,3.6-10.5,11.2-10.5,16.7c0,5.6,5.6,14.2,11.1,17.1c6.1,3.1,17.4,0.9,22.1-4.3
	c7.1-7.9,5.8-21.4-2.7-27.9C1072.2,1177.5,1061.9,1176.7,1057.2,1179.7z"/>
<path d="M1181.2,1179c-3.3,1.9-7.6,6.2-9.1,9.1c-1.7,3.2-1.8,11.5-0.3,15.5c1.3,3.4,5.5,8,9.1,9.9s12.5,1.7,16.7-0.4
	c12.3-6.1,13.6-23.4,2.5-31.9c-3-2.2-4.9-2.8-10.3-3.1C1186,1178,1182.3,1178.3,1181.2,1179z"/>
</svg>
