<svg width="31" height="30" viewBox="0 0 31 30" fill="none" xmlns="http://www.w3.org/2000/svg">
  <path d="M15.4991 0C6.94016 0 0 6.71547 0 15C0 23.2845 6.94016 30 15.4991 30H28.7843C30.0075 30 31 29.0123 31 27.7949V15C31 6.71547 24.0598 0 15.4991 0ZM21.3479 15.2697C20.7839 17.0156 19.0973 18.2821 17.1069 18.2821C16.726 18.2821 16.3542 18.2347 16.0008 18.1472C15.3563 18.5755 14.5908 18.8434 13.7613 18.8926C13.005 20.2175 11.5456 21.1141 9.87005 21.1141C7.41627 21.1141 5.42761 19.1915 5.42761 16.8187C5.42761 16.7477 5.42944 16.6766 5.4331 16.6073C4.69148 15.8401 4.23734 14.8087 4.23734 13.677C4.23734 13.0665 4.36919 12.4869 4.60724 11.9603C4.60541 11.9129 4.60541 11.8655 4.60541 11.8163C4.60541 10.3056 5.41113 8.97886 6.63069 8.21164C7.08116 7.34419 7.82645 6.64439 8.74021 6.23436C8.76401 6.20338 8.78782 6.17422 8.81163 6.14324C8.81895 6.13413 8.82627 6.12502 8.8336 6.1159C8.85008 6.09586 8.86839 6.07399 8.88487 6.05394C8.89403 6.04301 8.90318 6.03207 8.91234 6.02296C8.92882 6.00474 8.9453 5.98469 8.96178 5.96647C8.97094 5.95553 8.98009 5.94642 8.99108 5.93549C9.00939 5.91726 9.0277 5.89722 9.04418 5.87899C9.05334 5.86988 9.0625 5.86077 9.06982 5.85166C9.09179 5.82797 9.1156 5.8061 9.13941 5.78241C9.14307 5.77876 9.14856 5.7733 9.15222 5.76965C9.17969 5.74232 9.20899 5.7168 9.23646 5.68947C9.24378 5.68218 9.25111 5.67671 9.26026 5.66942C9.28224 5.6512 9.30238 5.63115 9.32435 5.61293C9.33534 5.60382 9.3445 5.5947 9.35548 5.58559C9.37563 5.56919 9.39394 5.55279 9.41408 5.53639C9.42507 5.52728 9.43606 5.51816 9.44704 5.50905C9.46719 5.49265 9.48733 5.47807 9.50747 5.46167C9.51846 5.45256 9.52945 5.44527 9.54043 5.43616C9.56424 5.41793 9.58621 5.40153 9.61002 5.38331C9.61734 5.37784 9.6265 5.37055 9.63382 5.36508C9.66495 5.34139 9.69792 5.31952 9.72904 5.29766C9.73454 5.29401 9.74186 5.29037 9.74736 5.2849C9.77299 5.26667 9.80046 5.25027 9.8261 5.23205C9.83708 5.22476 9.84807 5.21747 9.85906 5.21018C9.88103 5.1956 9.90301 5.18285 9.92498 5.16827C9.9378 5.16098 9.95062 5.15369 9.96161 5.1464C9.98358 5.13364 10.0056 5.12088 10.0275 5.10813C10.0403 5.10084 10.0532 5.09355 10.0642 5.08626C10.088 5.0735 10.1118 5.06075 10.1356 5.04617C10.1466 5.0407 10.1575 5.03523 10.1685 5.02794C10.2033 5.00972 10.2381 4.9915 10.2729 4.97327C10.3077 4.95505 10.3443 4.93865 10.3791 4.92225C10.3901 4.91678 10.4011 4.91131 10.4139 4.90767C10.4377 4.89673 10.4633 4.8858 10.489 4.87486C10.5018 4.8694 10.5165 4.86393 10.5293 4.85846C10.5531 4.84935 10.5769 4.83842 10.6007 4.8293C10.6153 4.82384 10.6282 4.81837 10.6428 4.8129C10.6666 4.80379 10.6922 4.79468 10.7161 4.78557C10.7289 4.7801 10.7417 4.77646 10.7545 4.77099C10.7856 4.76005 10.8168 4.74912 10.8461 4.74001C10.8534 4.73819 10.8607 4.73454 10.8662 4.73272C10.9047 4.71996 10.9431 4.70903 10.9816 4.69627C10.9926 4.69263 11.0035 4.6908 11.0127 4.68716C11.0402 4.67987 11.0695 4.67076 11.0969 4.66347C11.1116 4.65982 11.1244 4.65618 11.1391 4.65253C11.1647 4.64524 11.1903 4.63978 11.2141 4.63431C11.2288 4.63066 11.2434 4.62702 11.2599 4.62338C11.2855 4.61791 11.3112 4.61244 11.3368 4.60697C11.3515 4.60333 11.3661 4.60151 11.3808 4.59786C11.4101 4.59239 11.4394 4.58693 11.4687 4.58146C11.4797 4.57964 11.4906 4.57782 11.5016 4.57599C11.5419 4.5687 11.5822 4.56324 11.6225 4.55595C11.6298 4.55412 11.639 4.55412 11.6463 4.5523C11.6792 4.54684 11.7122 4.54319 11.7452 4.53955C11.7598 4.53772 11.7745 4.5359 11.7873 4.53408C11.8148 4.53043 11.8422 4.52861 11.8679 4.52497C11.8843 4.52314 11.899 4.52132 11.9155 4.52132C11.9411 4.5195 11.9686 4.51768 11.9942 4.51586C12.0107 4.51403 12.0253 4.51403 12.0418 4.51221C12.0711 4.51039 12.0986 4.51039 12.1279 4.50857C12.1407 4.50857 12.1554 4.50674 12.1682 4.50674C12.2103 4.50492 12.2524 4.50492 12.2945 4.50492C12.3366 4.50492 12.3769 4.50492 12.4172 4.50674C12.43 4.50674 12.4428 4.50857 12.4557 4.50857C12.485 4.51039 12.5124 4.51039 12.5399 4.51221C12.5546 4.51221 12.5692 4.51403 12.5839 4.51403C12.6113 4.51586 12.637 4.51768 12.6644 4.5195C12.6791 4.52132 12.6937 4.52132 12.7084 4.52314C12.7358 4.52497 12.7633 4.52861 12.7889 4.53043C12.8018 4.53226 12.8164 4.53408 12.8292 4.53408C12.8585 4.53772 12.886 4.54137 12.9153 4.54501C12.9263 4.54684 12.9373 4.54866 12.9483 4.54866C12.9812 4.55412 13.016 4.55959 13.049 4.56324C13.0545 4.56506 13.0618 4.56506 13.0673 4.56688C13.1497 4.58146 13.2303 4.59604 13.3108 4.61426C13.8675 4.37189 14.4846 4.23521 15.1347 4.23521C16.2572 4.23521 17.2827 4.63795 18.0646 5.3013C18.5114 5.15551 18.9893 5.07715 19.4874 5.07715C21.1061 5.07715 22.5235 5.91544 23.2999 7.16559C24.7099 7.88543 25.6713 9.316 25.6713 10.9653C25.6731 13.3088 23.7467 15.2078 21.3479 15.2697Z" fill="#383723"/>
</svg>
