<svg width="173" height="34" viewBox="0 0 173 34" xmlns="http://www.w3.org/2000/svg">
  <path d="M45.8461 22.7457C46.6508 22.7457 47.4227 22.5262 48.065 22.18C48.8697 21.7393 50.1872 21.5502 50.992 22.3371C51.8934 23.2185 51.7639 24.8225 50.7018 25.5451C49.3515 26.489 47.6453 26.9922 45.8442 26.9922C41.5341 26.9922 37.6089 24.0357 37.6089 19.4127V19.3181C37.6089 14.6951 41.5341 11.7368 45.8442 11.7368C47.6453 11.7368 49.3497 12.24 50.7018 13.1838C51.7639 13.9083 51.8916 15.5123 50.992 16.3919C50.1872 17.1788 48.8697 16.9897 48.065 16.5489C47.4208 16.2028 46.649 15.9833 45.8461 15.9833C43.9154 15.9833 42.1782 17.2733 42.1782 19.3181V19.4127C42.1782 21.4574 43.9154 22.7457 45.8461 22.7457Z" />
  <path d="M58.7455 24.9171C58.7455 26.0179 57.7163 26.8673 56.4937 26.8673C55.3039 26.8673 54.2747 25.9858 54.2419 24.9171V5.82378C54.2747 4.75502 55.3039 3.8736 56.4937 3.8736C57.7163 3.8736 58.7455 4.7229 58.7455 5.82378V24.9171Z" />
  <path d="M74.5719 25.6718C73.0591 26.6478 71.1613 26.9922 69.3931 26.9922C65.0829 26.9922 61.5447 23.9411 61.5447 19.3181C61.5447 14.6951 65.0829 11.7368 69.3931 11.7368C73.6722 11.7368 77.081 14.82 77.081 19.443C77.081 20.2299 76.4058 20.7955 75.6978 20.7955H66.0154C66.2399 22.4941 68.1377 23.2167 69.7143 23.2167C70.6157 23.2167 71.3876 23.1542 72.3201 22.5244C73.3493 21.8321 74.508 22.0212 75.1503 22.7439C75.9879 23.6895 75.6667 25.042 74.5719 25.6718ZM72.5774 18.0602C72.3529 16.267 71.0975 15.3874 69.4241 15.3874C67.7508 15.3874 66.4643 16.2046 66.0793 18.0602H72.5774Z" />
  <path d="M88.0424 25.0116C87.5917 26.175 86.7888 26.8673 85.5662 26.8673H85.3728C84.183 26.8673 83.2816 26.175 82.7998 25.0116L78.2634 14.5684C77.8766 13.5621 78.4879 12.24 79.5827 11.9581C80.9988 11.6119 81.9951 12.2418 82.382 13.216L85.4385 21.1416L88.495 13.216C88.849 12.24 89.8782 11.6119 91.2942 11.9581C92.3873 12.2418 92.9986 13.5621 92.6135 14.5684L88.0424 25.0116Z" />
  <path d="M106.925 25.6718C105.413 26.6478 103.515 26.9922 101.747 26.9922C97.4365 26.9922 93.8982 23.9411 93.8982 19.3181C93.8982 14.6951 97.4365 11.7368 101.747 11.7368C106.026 11.7368 109.434 14.82 109.434 19.443C109.434 20.2299 108.759 20.7955 108.051 20.7955H98.3689C98.5934 22.4941 100.491 23.2167 102.068 23.2167C102.969 23.2167 103.741 23.1542 104.674 22.5244C105.703 21.8321 106.861 22.0212 107.504 22.7439C108.341 23.6895 108.02 25.042 106.925 25.6718ZM104.931 18.0602C104.706 16.267 103.451 15.3874 101.778 15.3874C100.104 15.3874 98.8178 16.2046 98.4328 18.0602H104.931Z" />
  <path d="M123.637 14.1598C123.476 15.2607 122.414 15.7639 121.418 15.7639C121.097 15.7639 120.613 15.7318 120.325 15.7318C117.816 15.7318 116.98 17.6195 116.914 21.2986V24.9153C116.914 26.0162 115.885 26.8655 114.663 26.8655C113.473 26.8655 112.444 25.9841 112.411 24.9153V13.8137C112.444 12.7449 113.473 11.8635 114.663 11.8635C115.885 11.8635 116.914 12.7128 116.914 13.8137V15.4177C117.75 12.6807 119.327 11.7368 120.87 11.7368C122.35 11.7368 123.927 12.083 123.637 14.1598Z" />
  <path d="M132.243 22.7457C133.047 22.7457 133.819 22.5262 134.461 22.18C135.266 21.7393 136.584 21.5502 137.388 22.3371C138.29 23.2185 138.16 24.8225 137.098 25.5451C135.748 26.489 134.042 26.9922 132.241 26.9922C127.931 26.9922 124.005 24.0357 124.005 19.4127V19.3181C124.005 14.6951 127.931 11.7368 132.241 11.7368C134.042 11.7368 135.746 12.24 137.098 13.1838C138.16 13.9083 138.288 15.5123 137.388 16.3919C136.584 17.1788 135.264 16.9897 134.461 16.5489C133.817 16.2028 133.045 15.9833 132.243 15.9833C130.312 15.9833 128.575 17.2733 128.575 19.3181V19.4127C128.577 21.4574 130.314 22.7457 132.243 22.7457Z" />
  <path d="M145.144 24.9171C145.144 26.0179 144.115 26.8673 142.892 26.8673C141.702 26.8673 140.673 25.9858 140.64 24.9171V5.82378C140.673 4.75502 141.702 3.8736 142.892 3.8736C144.115 3.8736 145.144 4.7229 145.144 5.82378V24.9171Z" />
  <path d="M151.239 4.03064C152.751 4.03064 153.972 5.13152 153.972 6.57855C153.972 8.02558 152.75 9.15858 151.239 9.15858C149.726 9.15858 148.439 8.02558 148.439 6.57855C148.439 5.13152 149.726 4.03064 151.239 4.03064ZM153.49 24.9171C153.49 26.018 152.461 26.8673 151.239 26.8673C150.049 26.8673 149.02 25.9859 148.987 24.9171V13.8137C149.02 12.7449 150.049 11.8635 151.239 11.8635C152.461 11.8635 153.49 12.7128 153.49 13.8137V24.9171Z" />
  <path d="M165.441 11.7368C169.269 11.7368 172.744 14.4739 172.744 19.3484C172.744 24.223 169.269 26.9922 165.441 26.9922C163.737 26.9922 161.903 26.175 160.937 24.6334V31.931C160.905 32.9997 159.875 33.8812 158.686 33.8812C157.463 33.8812 156.434 33.0319 156.434 31.931V13.8137C156.434 12.7128 157.463 11.8635 158.686 11.8635C159.875 11.8635 160.905 12.7449 160.937 13.8137V14.0974C162.224 12.1472 164.476 11.7368 165.441 11.7368ZM164.572 15.6693C162.545 15.6693 160.905 17.4304 160.905 19.3805C160.905 21.3307 162.545 23.0918 164.572 23.0918C166.824 23.0918 168.111 21.3307 168.111 19.3805C168.111 17.4304 166.824 15.6693 164.572 15.6693Z" />
  <path d="M15.445 0C6.91596 0 0 6.57497 0 14.6862C0 22.7974 6.91596 29.3723 15.445 29.3723H28.6839C29.9028 29.3723 30.8919 28.4053 30.8919 27.2134V14.6862C30.8919 6.57497 23.9759 0 15.445 0ZM21.2734 14.9502C20.7114 16.6596 19.0307 17.8996 17.0472 17.8996C16.6676 17.8996 16.2972 17.8532 15.945 17.7676C15.3027 18.1869 14.5399 18.4492 13.7133 18.4973C12.9597 19.7945 11.5053 20.6723 9.83562 20.6723C7.3904 20.6723 5.40868 18.79 5.40868 16.4669C5.40868 16.3973 5.4105 16.3277 5.41415 16.2599C4.67511 15.5087 4.22257 14.4988 4.22257 13.3908C4.22257 12.7931 4.35395 12.2257 4.59117 11.71C4.58935 11.6637 4.58935 11.6173 4.58935 11.5691C4.58935 10.0899 5.39226 8.79101 6.60757 8.03984C7.05646 7.19053 7.79915 6.50538 8.70973 6.10392C8.73345 6.07359 8.75717 6.04504 8.78089 6.01471C8.78819 6.00579 8.79549 5.99687 8.80279 5.98795C8.81921 5.96832 8.83746 5.94691 8.85388 5.92728C8.86301 5.91658 8.87213 5.90587 8.88126 5.89695C8.89768 5.87911 8.9141 5.85948 8.93052 5.84164C8.93965 5.83093 8.94877 5.82201 8.95972 5.81131C8.97797 5.79347 8.99622 5.77384 9.01264 5.756C9.02176 5.74707 9.03089 5.73815 9.03819 5.72923C9.06008 5.70604 9.08381 5.68463 9.10753 5.66143C9.11118 5.65786 9.11665 5.65251 9.1203 5.64894C9.14767 5.62218 9.17687 5.5972 9.20424 5.57043C9.21154 5.5633 9.21884 5.55794 9.22797 5.55081C9.24986 5.53296 9.26994 5.51334 9.29183 5.49549C9.30278 5.48657 9.31191 5.47765 9.32285 5.46873C9.34293 5.45267 9.36118 5.43661 9.38125 5.42056C9.3922 5.41163 9.40315 5.40271 9.41409 5.39379C9.43417 5.37773 9.45424 5.36346 9.47431 5.3474C9.48526 5.33848 9.49621 5.33134 9.50716 5.32242C9.53088 5.30458 9.55278 5.28852 9.5765 5.27068C9.5838 5.26533 9.59292 5.25819 9.60022 5.25284C9.63124 5.22964 9.66409 5.20823 9.69511 5.18682C9.70059 5.18325 9.70789 5.17968 9.71336 5.17433C9.73891 5.15649 9.76628 5.14043 9.79183 5.12259C9.80277 5.11545 9.81372 5.10831 9.82467 5.10118C9.84657 5.0869 9.86847 5.07441 9.89036 5.06014C9.90314 5.053 9.91591 5.04586 9.92686 5.03873C9.94876 5.02624 9.97066 5.01375 9.99255 5.00126C10.0053 4.99412 10.0181 4.98698 10.029 4.97985C10.0528 4.96736 10.0765 4.95487 10.1002 4.94059C10.1112 4.93524 10.1221 4.92989 10.1331 4.92275C10.1677 4.90491 10.2024 4.88707 10.2371 4.86922C10.2717 4.85138 10.3082 4.83532 10.3429 4.81926C10.3539 4.81391 10.3648 4.80856 10.3776 4.80499C10.4013 4.79428 10.4269 4.78358 10.4524 4.77287C10.4652 4.76752 10.4798 4.76217 10.4925 4.75681C10.5163 4.74789 10.54 4.73719 10.5637 4.72827C10.5783 4.72291 10.5911 4.71756 10.6057 4.71221C10.6294 4.70329 10.655 4.69437 10.6787 4.68544C10.6914 4.68009 10.7042 4.67652 10.717 4.67117C10.748 4.66047 10.779 4.64976 10.8082 4.64084C10.8155 4.63905 10.8228 4.63549 10.8283 4.6337C10.8666 4.62121 10.9049 4.61051 10.9433 4.59802C10.9542 4.59445 10.9652 4.59266 10.9743 4.5891C11.0017 4.58196 11.0309 4.57304 11.0582 4.5659C11.0728 4.56233 11.0856 4.55876 11.1002 4.55519C11.1257 4.54806 11.1513 4.5427 11.175 4.53735C11.1896 4.53378 11.2042 4.53022 11.2206 4.52665C11.2462 4.52129 11.2717 4.51594 11.2973 4.51059C11.3119 4.50702 11.3265 4.50524 11.3411 4.50167C11.3703 4.49631 11.3995 4.49096 11.4287 4.48561C11.4396 4.48382 11.4506 4.48204 11.4615 4.48026C11.5017 4.47312 11.5418 4.46777 11.5819 4.46063C11.5892 4.45884 11.5984 4.45884 11.6057 4.45706C11.6385 4.45171 11.6714 4.44814 11.7042 4.44457C11.7188 4.44279 11.7334 4.441 11.7462 4.43922C11.7735 4.43565 11.8009 4.43387 11.8265 4.4303C11.8429 4.42851 11.8575 4.42673 11.8739 4.42673C11.8995 4.42494 11.9268 4.42316 11.9524 4.42138C11.9688 4.41959 11.9834 4.41959 11.9998 4.41781C12.029 4.41602 12.0564 4.41602 12.0856 4.41424C12.0984 4.41424 12.113 4.41245 12.1257 4.41245C12.1677 4.41067 12.2097 4.41067 12.2516 4.41067C12.2936 4.41067 12.3338 4.41067 12.3739 4.41245C12.3867 4.41245 12.3995 4.41424 12.4122 4.41424C12.4414 4.41602 12.4688 4.41602 12.4962 4.41781C12.5108 4.41781 12.5254 4.41959 12.54 4.41959C12.5673 4.42138 12.5929 4.42316 12.6203 4.42494C12.6349 4.42673 12.6494 4.42673 12.664 4.42851C12.6914 4.4303 12.7188 4.43387 12.7443 4.43565C12.7571 4.43743 12.7717 4.43922 12.7845 4.43922C12.8137 4.44279 12.8411 4.44636 12.8702 4.44992C12.8812 4.45171 12.8921 4.45349 12.9031 4.45349C12.9359 4.45884 12.9706 4.4642 13.0035 4.46777C13.0089 4.46955 13.0162 4.46955 13.0217 4.47133C13.1038 4.48561 13.1841 4.49988 13.2644 4.51772C13.8191 4.28042 14.4341 4.1466 15.0819 4.1466C16.2005 4.1466 17.2224 4.54092 18.0016 5.19039C18.4468 5.04765 18.9231 4.97093 19.4194 4.97093C21.0325 4.97093 22.4449 5.79168 23.2186 7.01568C24.6237 7.72046 25.5817 9.12109 25.5817 10.7358C25.5836 13.0304 23.6639 14.8896 21.2734 14.9502Z" />
</svg>
