<svg width="288" height="233" viewBox="0 0 288 233" fill="none" xmlns="http://www.w3.org/2000/svg">
<path d="M100.091 112.943C123.441 111.363 149.99 100.03 173.599 110.335C197.209 120.64 214.169 133.161 238.52 114.712C262.872 96.2634 253.68 67.6234 239.941 52.7288C226.203 37.8342 194.732 26.8931 170.236 42.3501C145.739 57.8071 130.14 51.6566 107.701 51.0768C85.2613 50.497 60.4992 66.3641 66.4116 90.4976C72.3239 114.631 92.8356 113.459 100.091 112.943Z" fill="#FACB10"/>
<path d="M124.778 141.112C132.355 142.502 139.036 145.182 144.503 149.843C150.132 154.606 154.405 160.77 156.89 167.713C159.306 174.489 159.373 181.684 157.982 189.272C156.693 196.416 153.488 203.076 148.708 208.54C143.901 214.192 137.949 217.666 130.913 220.157C124.137 222.573 117.298 224.295 109.721 222.905C102.143 221.516 94.3833 219.779 88.9165 215.118C83.2659 210.3 81.4412 202.435 78.9526 195.444C76.5238 188.677 74.2891 181.766 75.6808 174.178C77.0725 166.59 79.1545 158.837 83.8287 153.362C88.9224 147.627 95.3867 143.277 102.618 140.718C109.448 138.312 117.19 139.721 124.778 141.112Z" fill="#EFEFEF"/>
<path d="M51.2955 106.176C53.9785 106.605 56.5484 107.567 58.854 109.004C61.1595 110.442 63.1541 112.326 64.72 114.546C66.2865 116.79 67.3907 119.322 67.9683 121.996C68.5459 124.671 68.5853 127.433 68.0843 130.123C67.5651 132.793 66.5138 135.33 64.9931 137.585C63.4723 139.84 61.5132 141.765 59.2325 143.246C57.0276 144.791 54.533 145.874 51.8987 146.429C49.2644 146.984 46.545 147.001 43.9042 146.477C41.268 145.995 38.7583 144.979 36.5297 143.491C34.3011 142.003 32.4008 140.074 30.9457 137.824C27.8961 133.404 26.1311 128.325 27.1833 122.588C28.2355 116.851 30.8227 111.529 35.2422 108.48C39.6617 105.43 45.5801 105.128 51.2955 106.176Z" fill="#00B9D7"/>
</svg>
